<svg width="764" height="542" viewBox="0 0 764 542" fill="none" xmlns="http://www.w3.org/2000/svg">
  <!-- 红色热点 (Hotspots) -->
  <g id="hotspots">
    <circle cx="291" cy="326" r="3" fill="#F1664D"/>
    <circle cx="3" cy="207" r="3" fill="#F1664D"/>
    <circle cx="761" cy="45" r="3" fill="#F1664D"/>
    <circle cx="247" cy="539" r="3" fill="#F1664D"/>
    <circle cx="128" cy="410" r="3" fill="#F1664D"/>
    <circle cx="748" cy="392" r="3" fill="#F1664D"/>
    <circle cx="682" cy="173" r="3" fill="#F1664D"/>
    <circle cx="649" cy="39" r="3" fill="#F1664D"/>
    <circle cx="109" cy="39" r="3" fill="#F1664D"/>
    <circle cx="166" cy="190" r="3" fill="#F1664D"/>
    <circle cx="220" cy="435" r="3" fill="#F1664D"/>
    <circle cx="106" cy="525" r="3" fill="#F1664D"/>
    <circle cx="511" cy="531" r="3" fill="#F1664D"/>
  </g>
  
  <!-- 黄色专家点 (Specialists) -->
  <g id="specialists">
    <circle cx="9" cy="229" r="3" fill="#EBFC72"/>
    <circle cx="621" cy="27" r="3" fill="#EBFC72"/>
    <circle cx="748" cy="47" r="3" fill="#EBFC72"/>
    <circle cx="673" cy="280" r="3" fill="#EBFC72"/>
    <circle cx="554" cy="519" r="3" fill="#EBFC72"/>
    <circle cx="404" cy="412" r="3" fill="#EBFC72"/>
    <circle cx="386" cy="215" r="3" fill="#EBFC72"/>
    <circle cx="298" cy="180" r="3" fill="#EBFC72"/>
    <circle cx="386" cy="522" r="3" fill="#EBFC72"/>
    <circle cx="410" cy="438" r="3" fill="#EBFC72"/>
    <circle cx="655" cy="474" r="3" fill="#EBFC72"/>
    <circle cx="753" cy="331" r="3" fill="#EBFC72"/>
    <circle cx="689" cy="193" r="3" fill="#EBFC72"/>
    <circle cx="418" cy="99" r="3" fill="#EBFC72"/>
    <circle cx="332" cy="3" r="3" fill="#EBFC72"/>
    <circle cx="332" cy="376" r="3" fill="#EBFC72"/>
    <circle cx="266" cy="224" r="3" fill="#EBFC72"/>
    <circle cx="166" cy="484" r="3" fill="#EBFC72"/>
    <circle cx="180" cy="21" r="3" fill="#EBFC72"/>
    <circle cx="639" cy="47" r="3" fill="#EBFC72"/>
    <circle cx="226" cy="39" r="3" fill="#EBFC72"/>
    <circle cx="285" cy="285" r="3" fill="#EBFC72"/>
    <circle cx="134" cy="398" r="3" fill="#EBFC72"/>
  </g>
</svg>