<svg width="10" height="10" viewBox="0 0 10 10" fill="none" xmlns="http://www.w3.org/2000/svg">
<g filter="url(#filter0_i_1079_108)">
<path d="M4.99951 6.8999C5.22043 6.8999 5.3999 7.07938 5.3999 7.30029V7.69971C5.3999 7.92062 5.22043 8.1001 4.99951 8.1001C4.77866 8.10002 4.6001 7.92057 4.6001 7.69971V7.30029C4.6001 7.07942 4.77866 6.89998 4.99951 6.8999ZM3.09033 6.34326C3.24654 6.18705 3.50053 6.18705 3.65674 6.34326C3.81263 6.49941 3.81263 6.75254 3.65674 6.90869L3.37353 7.19189C3.2174 7.3479 2.96429 7.34782 2.80811 7.19189C2.6519 7.03568 2.6519 6.7817 2.80811 6.62549L3.09033 6.34326ZM6.34326 6.34326C6.49943 6.18709 6.75247 6.18718 6.90869 6.34326L7.19189 6.62549C7.3481 6.7817 7.3481 7.03568 7.19189 7.19189C7.03575 7.3479 6.78265 7.34783 6.62646 7.19189L6.34326 6.90869C6.18722 6.75251 6.18722 6.49944 6.34326 6.34326ZM4.99756 3.79736C5.66023 3.79736 6.19765 4.33491 6.19775 4.99756C6.19775 5.6603 5.6603 6.19775 4.99756 6.19775C4.33483 6.19774 3.79736 5.66029 3.79736 4.99756C3.79747 4.33492 4.3349 3.79738 4.99756 3.79736ZM2.69971 4.6001C2.92049 4.60013 3.09993 4.77876 3.1001 4.99951C3.1001 5.22041 2.9206 5.39987 2.69971 5.3999H2.29932C2.07856 5.39972 1.8999 5.22031 1.8999 4.99951C1.90007 4.77885 2.07866 4.60028 2.29932 4.6001H2.69971ZM7.69971 4.6001C7.92049 4.60013 8.09993 4.77876 8.1001 4.99951C8.1001 5.22041 7.9206 5.39987 7.69971 5.3999H7.29932C7.07856 5.39972 6.8999 5.22031 6.8999 4.99951C6.90007 4.77885 7.07866 4.60028 7.29932 4.6001H7.69971ZM2.80811 2.80713C2.96427 2.65136 3.21743 2.65127 3.37353 2.80713L3.65674 3.09033C3.8127 3.24643 3.81254 3.49956 3.65674 3.65576C3.50053 3.81197 3.24654 3.81197 3.09033 3.65576L2.80811 3.37353C2.6519 3.21733 2.6519 2.96334 2.80811 2.80713ZM6.62646 2.80713C6.78262 2.65135 7.03578 2.65128 7.19189 2.80713C7.3481 2.96334 7.3481 3.21733 7.19189 3.37353L6.90869 3.65576C6.75248 3.81196 6.49947 3.81197 6.34326 3.65576C6.1873 3.49954 6.18715 3.24646 6.34326 3.09033L6.62646 2.80713ZM4.99951 1.8999C5.22043 1.8999 5.3999 2.07938 5.3999 2.30029V2.69971C5.3999 2.92062 5.22043 3.1001 4.99951 3.1001C4.77866 3.10002 4.6001 2.92058 4.6001 2.69971V2.30029C4.6001 2.07942 4.77866 1.89998 4.99951 1.8999Z" fill="white"/>
</g>
<defs>
<filter id="filter0_i_1079_108" x="0" y="0" width="10" height="10" filterUnits="userSpaceOnUse" color-interpolation-filters="sRGB">
<feFlood flood-opacity="0" result="BackgroundImageFix"/>
<feBlend mode="normal" in="SourceGraphic" in2="BackgroundImageFix" result="shape"/>
<feColorMatrix in="SourceAlpha" type="matrix" values="0 0 0 0 0 0 0 0 0 0 0 0 0 0 0 0 0 0 127 0" result="hardAlpha"/>
<feOffset/>
<feGaussianBlur stdDeviation="1"/>
<feComposite in2="hardAlpha" operator="arithmetic" k2="-1" k3="1"/>
<feColorMatrix type="matrix" values="0 0 0 0 0.942 0 0 0 0 0.94 0 0 0 0 1 0 0 0 0.1 0"/>
<feBlend mode="hard-light" in2="shape" result="effect1_innerShadow_1079_108"/>
</filter>
</defs>
</svg>
